<?xml version="1.0" encoding="utf-8"?>
<!-- Generator: Adobe Illustrator 25.4.1, SVG Export Plug-In . SVG Version: 6.00 Build 0)  -->
<svg version="1.1" id="Calque_1" xmlns="http://www.w3.org/2000/svg" xmlns:xlink="http://www.w3.org/1999/xlink" x="0px" y="0px"
	 width="411.5px" height="411.5px" viewBox="0 0 411.5 411.5" style="enable-background:new 0 0 411.5 411.5;" xml:space="preserve"
	>
<style type="text/css">
	.st0{fill:#EB7046;}
	.st1{fill:#FFDC4A;}
	.st2{fill:#181818;}
</style>
<path class="st0" d="M0,0v411.5h411.5V0H0z M358.3,167.1c-15,14.8-35.5,23.9-58.2,23.9c-45.8,0-82.9-37.1-82.9-82.9
	c0-22.7,9.1-43.3,23.9-58.2c15-15.2,35.9-24.6,58.9-24.6c45.8,0,82.9,37.1,82.9,82.9C382.9,131.2,373.5,152.1,358.3,167.1z"/>
<path class="st1" d="M217.2,108.2c0-22.7,9.1-43.3,23.9-58.2l-0.1-0.1L28.6,262.2v117.4H146l212.4-212.4l-0.1-0.1
	c-15,14.8-35.5,23.9-58.2,23.9C254.3,191,217.2,153.9,217.2,108.2z"/>
<path class="st2" d="M29.9,52.1c0-0.7,0-1.3,0-2c0-1.4,0-2.9,0.1-4.6c0-1.7,0-3.5,0-5.3c0-4.7,0-8.6-0.1-11.9H41c3,0,5.3,0.7,6.8,2
	c1.6,1.4,2.3,3.3,2.3,5.7c0,1-0.1,1.9-0.3,2.7c-0.2,0.7-0.6,1.4-1.1,1.9c-0.5,0.5-1.1,1-1.9,1.3V42c1.2,0.5,2,1.2,2.5,2.3
	c0.5,1,0.7,2.5,0.7,4.4c0,1.5,0,2.7,0,3.4h-4.9c0-0.6,0-1.9,0-3.8c0-1.1-0.2-2-0.7-2.6c-0.5-0.6-1-1.1-1.8-1.3
	c-0.7-0.2-1.5-0.4-2.5-0.4h-5.7c0,0.8,0,1.4,0,1.9c0,1,0,2.1,0,3.2c0,1,0,2.1,0.1,3.1H29.9z M41.2,40.1c1.1,0,1.9-0.2,2.5-0.7
	c0.6-0.5,0.9-1.2,0.9-2.1c0-0.7-0.3-1.3-0.9-1.7c-0.6-0.4-1.3-0.6-2.2-0.6h-6.9v5.1H41.2z M61.4,52.4c-3.2,0-5.5-0.8-7-2.4
	c-1.5-1.6-2.2-3.9-2.2-6.9c0-2.1,0.3-3.8,1-5.2c0.7-1.4,1.7-2.5,3.1-3.2c1.4-0.7,3.1-1.1,5.1-1.1c2.6,0,4.5,0.8,5.8,2.4
	c1.3,1.6,2,3.7,2,6.3v2.3h-14v-3.1H65c0-0.4-0.2-0.8-0.5-1.1c-0.3-0.4-0.8-0.6-1.4-0.8c-0.6-0.2-1.2-0.3-2-0.3c-1.1,0-2,0.2-2.8,0.5
	C57.5,40,57,40.4,56.6,41c-0.4,0.6-0.5,1.3-0.5,2.1c0,0.9,0.2,1.6,0.5,2.1c0.4,0.5,1,0.9,1.8,1.1c0.8,0.2,2,0.3,3.4,0.3
	c1.1,0,2.2-0.1,3.2-0.2c1-0.1,2.2-0.3,3.6-0.6l-0.5,5.5c-1.1,0.4-2.3,0.6-3.4,0.8C63.6,52.3,62.5,52.4,61.4,52.4z M71.4,52.1
	c0.1-1.6,0.1-4.6,0.1-9.1c0-1.9,0-3.7,0-5.5c0-1.2-0.1-2.4-0.1-3.5h4.5c0,0.8-0.1,1.4-0.1,1.8c-0.1,1.5-0.1,2.5-0.2,3.2l-0.3-0.7
	c0.4-0.9,0.9-1.7,1.5-2.4c0.6-0.7,1.3-1.3,2.2-1.7c0.9-0.4,1.9-0.6,3.1-0.6c1.5,0,2.7,0.3,3.6,1c0.9,0.7,1.6,1.5,1.9,2.6
	c0.4,1.1,0.6,2.2,0.5,3.5c-0.1,2.2-0.1,4.1-0.2,5.6c0,1.5,0,3.4,0.1,5.7h-4.4c0.1-1.2,0.1-3.4,0.1-6.6v-1c0-0.9-0.2-1.6-0.5-2.2
	c-0.3-0.5-0.8-0.9-1.3-1.2c-0.5-0.2-1.1-0.4-1.8-0.4c-1,0-1.8,0.2-2.5,0.5c-0.6,0.3-1.1,0.9-1.4,1.6c-0.3,0.7-0.5,1.6-0.5,2.7
	c0,2.2,0,4.4,0.1,6.5H71.4z M97.8,52.4c-1.5,0-2.6-0.2-3.5-0.7c-0.9-0.5-1.5-1.1-1.9-1.9c-0.4-0.8-0.5-1.8-0.5-2.9
	c0-2.1,0-4.2,0-6.3c0-0.1,0-0.1,0-0.2H90v-6.5h1.9v-3.4H96v3.4h5.6v6.5H96c0,0.7,0,1.4,0,2c0,0.6,0.1,1.2,0.2,1.7
	c0.2,0.5,0.5,0.9,0.8,1.2c0.4,0.3,0.9,0.4,1.5,0.4c0.6,0,1.1,0,1.6-0.1c0.5,0,1.1-0.1,1.8-0.3l-0.3,6.3c-0.1,0-0.2,0.1-0.4,0.1
	c-0.6,0.2-1.2,0.3-1.8,0.4C99,52.4,98.4,52.4,97.8,52.4z M104.3,52.1c0-3.9,0.1-6.8,0.1-8.8c0-2.3,0-5.4-0.1-9.3h4.5
	c0,0.3,0,0.5,0,0.8c0,0.2,0,0.5,0,0.7c0,1.2-0.1,2.3-0.1,3.5l-0.4-0.6c0.5-1,1-1.9,1.7-2.6c0.7-0.7,1.4-1.2,2.2-1.6
	c0.8-0.4,1.7-0.5,2.6-0.5c0.2,0,0.3,0,0.5,0c0.2,0,0.4,0.1,0.6,0.1v7.8c-0.5-0.1-0.9-0.2-1.4-0.3c-0.5-0.1-0.9-0.1-1.3-0.1
	c-0.9,0-1.7,0.1-2.4,0.4c-0.7,0.3-1.2,0.8-1.6,1.5c-0.4,0.7-0.6,1.6-0.6,2.8c0,1.1,0,2.2,0.1,3.4c0,0.7,0,1.6,0.1,2.9H104.3z
	 M126.7,52.4c-3.2,0-5.5-0.8-7-2.4c-1.5-1.6-2.2-3.9-2.2-6.9c0-2.1,0.3-3.8,1-5.2c0.7-1.4,1.7-2.5,3.1-3.2c1.4-0.7,3.1-1.1,5.1-1.1
	c2.6,0,4.5,0.8,5.8,2.4c1.3,1.6,2,3.7,2,6.3v2.3h-14v-3.1h9.9c0-0.4-0.2-0.8-0.5-1.1c-0.3-0.4-0.8-0.6-1.4-0.8
	c-0.6-0.2-1.2-0.3-2-0.3c-1.1,0-2,0.2-2.8,0.5c-0.7,0.3-1.3,0.7-1.7,1.3c-0.4,0.6-0.5,1.3-0.5,2.1c0,0.9,0.2,1.6,0.5,2.1
	c0.4,0.5,1,0.9,1.8,1.1c0.8,0.2,2,0.3,3.4,0.3c1.1,0,2.2-0.1,3.2-0.2c1-0.1,2.2-0.3,3.6-0.6l-0.5,5.5c-1.1,0.4-2.3,0.6-3.4,0.8
	C128.9,52.3,127.8,52.4,126.7,52.4z M136.7,52.1c0-3.9,0.1-6.8,0.1-8.8c0-2.3,0-5.4-0.1-9.3h4.5c0,0.3,0,0.5,0,0.8
	c0,0.2,0,0.5,0,0.7c0,1.2-0.1,2.3-0.1,3.5l-0.4-0.6c0.5-1,1-1.9,1.7-2.6c0.7-0.7,1.4-1.2,2.2-1.6c0.8-0.4,1.7-0.5,2.6-0.5
	c0.2,0,0.3,0,0.5,0c0.2,0,0.4,0.1,0.6,0.1v7.8c-0.5-0.1-0.9-0.2-1.4-0.3c-0.5-0.1-0.9-0.1-1.3-0.1c-0.9,0-1.7,0.1-2.4,0.4
	c-0.7,0.3-1.2,0.8-1.6,1.5c-0.4,0.7-0.6,1.6-0.6,2.8c0,1.1,0,2.2,0.1,3.4c0,0.7,0,1.6,0.1,2.9H136.7z M167.9,52.4
	c-1.7,0-3.2-0.3-4.5-1c-1.2-0.7-2.2-1.7-2.9-3.1c-0.7-1.4-1.1-3.2-1.1-5.3c0-2.1,0.4-3.9,1.1-5.3c0.7-1.4,1.7-2.4,2.9-3.1
	c1.3-0.7,2.8-1,4.5-1c1.8,0,3.2,0.5,4.2,1.5c1.1,1,1.8,2.2,2.2,3.6c0.4,1.4,0.6,2.8,0.6,4.2c0,1.4-0.2,2.8-0.6,4.3
	c-0.4,1.4-1.2,2.7-2.2,3.7C171.1,51.9,169.7,52.4,167.9,52.4z M168.5,45.8c1.1,0,2-0.1,2.7-0.3c0.7-0.2,1.3-0.5,1.6-0.9
	c0.4-0.4,0.5-0.9,0.5-1.5s-0.2-1.1-0.5-1.5c-0.4-0.4-0.9-0.7-1.6-1c-0.7-0.2-1.6-0.3-2.7-0.3s-2,0.1-2.7,0.3
	c-0.7,0.2-1.3,0.5-1.6,0.9c-0.4,0.4-0.5,0.9-0.5,1.5s0.2,1.1,0.5,1.5c0.4,0.4,0.9,0.7,1.6,0.9C166.5,45.7,167.4,45.8,168.5,45.8z
	 M173.3,52.1c0-0.9,0-1.5,0-2c0-3.3,0-6.6,0-9.9c0-3.1,0-6.1,0-9.2c0-0.6,0-1.5,0-2.8h4.3c0,2.4,0,4.6-0.1,6.6c0,1.9,0,3.7,0,5.3
	c0,1.9,0,3.9,0,6.1c0,2.2,0,4.1,0.1,5.8H173.3z M189.2,52.4c-3.2,0-5.5-0.8-7-2.4c-1.5-1.6-2.2-3.9-2.2-6.9c0-2.1,0.3-3.8,1-5.2
	c0.7-1.4,1.7-2.5,3.1-3.2c1.4-0.7,3.1-1.1,5.1-1.1c2.6,0,4.5,0.8,5.8,2.4c1.3,1.6,2,3.7,2,6.3v2.3h-14v-3.1h9.9
	c0-0.4-0.2-0.8-0.5-1.1c-0.3-0.4-0.8-0.6-1.4-0.8c-0.6-0.2-1.2-0.3-2-0.3c-1.1,0-2,0.2-2.8,0.5c-0.7,0.3-1.3,0.7-1.7,1.3
	c-0.4,0.6-0.5,1.3-0.5,2.1c0,0.9,0.2,1.6,0.5,2.1c0.4,0.5,1,0.9,1.8,1.1c0.8,0.2,2,0.3,3.4,0.3c1.1,0,2.2-0.1,3.2-0.2
	c1-0.1,2.2-0.3,3.6-0.6l-0.5,5.5c-1.1,0.4-2.3,0.6-3.4,0.8C191.5,52.3,190.3,52.4,189.2,52.4z M205.4,52.6c-0.7,0-1.7-0.1-2.8-0.2
	c-1.1-0.2-2.2-0.4-3.3-0.7l-0.4-6.2c1.2,0.3,2.3,0.6,3.6,0.8c1.2,0.2,2.3,0.3,3.3,0.3c0.5,0,0.9,0,1.3-0.1c0.3-0.1,0.6-0.2,0.7-0.3
	c0.2-0.1,0.2-0.3,0.2-0.5c0-0.2,0-0.4-0.1-0.5c-0.1-0.1-0.2-0.2-0.5-0.3c-0.2-0.1-0.6-0.2-1-0.2c0,0-0.1,0-0.2,0
	c-1.8-0.2-3.3-0.5-4.4-0.9c-1.1-0.5-1.9-1-2.4-1.7c-0.5-0.7-0.7-1.6-0.7-2.7c0-0.8,0.2-1.6,0.6-2.4c0.4-0.8,1.2-1.6,2.4-2.2
	c1.2-0.7,2.9-1,5.2-1c1.2,0,2.3,0.1,3.2,0.2c0.9,0.1,1.9,0.4,2.9,0.6l0.1,6c-1.1-0.3-2.2-0.5-3.3-0.6c-1.1-0.2-2.1-0.2-3-0.2
	c-0.6,0-1.1,0.1-1.5,0.2c-0.4,0.1-0.6,0.4-0.6,0.7c0,0.2,0.1,0.4,0.2,0.5c0.1,0.1,0.3,0.2,0.6,0.3c0.3,0.1,0.7,0.1,1.3,0.2
	c1.8,0.2,3.2,0.5,4.2,0.9c1,0.4,1.8,0.9,2.3,1.5c0.5,0.7,0.7,1.5,0.7,2.6c0,2.2-0.8,3.8-2.4,4.7C210,52.1,207.9,52.6,205.4,52.6z
	 M37.7,84.4c-2.1,0-3.8-0.4-5.1-1.1c-1.3-0.7-2.2-1.8-2.9-3.2c-0.6-1.4-0.9-3.1-0.9-5.1c0-2,0.3-3.8,0.9-5.1
	c0.6-1.4,1.6-2.5,2.9-3.2c1.3-0.7,3-1.1,5.1-1.1c1,0,2,0.1,2.9,0.3c0.9,0.2,1.8,0.5,2.8,0.8l0.3,6.2c-1.1-0.2-2.1-0.4-3-0.5
	c-0.9-0.1-1.8-0.2-2.6-0.2c-1.2,0-2.2,0.1-3,0.3c-0.7,0.2-1.3,0.5-1.7,0.9c-0.3,0.4-0.5,1-0.5,1.6c0,0.7,0.2,1.2,0.5,1.6
	c0.4,0.4,0.9,0.7,1.7,0.9c0.7,0.2,1.7,0.3,3,0.3c1.2,0,2.2-0.1,3.1-0.2c0.9-0.1,1.7-0.3,2.5-0.5l-0.3,6.4c-1,0.3-2,0.6-3,0.7
	C39.5,84.3,38.6,84.4,37.7,84.4z M53.9,84.4c-1.7,0-3.2-0.3-4.4-1c-1.3-0.7-2.3-1.7-3-3.1c-0.7-1.4-1.1-3.1-1.1-5.1
	c0-2.2,0.4-4.1,1.1-5.5c0.7-1.5,1.7-2.5,3-3.2c1.3-0.7,2.9-1,4.7-1c1.7,0,3,0.5,4,1.5c1,1,1.7,2.2,2.1,3.7c0.4,1.4,0.6,2.8,0.6,4.1
	c0,1.4-0.2,2.8-0.6,4.3c-0.4,1.4-1.2,2.7-2.2,3.7C57,83.9,55.6,84.4,53.9,84.4z M54.4,77.8c1.1,0,2-0.1,2.7-0.3
	c0.7-0.2,1.3-0.5,1.6-0.9c0.4-0.4,0.5-0.9,0.5-1.5s-0.2-1.1-0.5-1.5c-0.4-0.4-0.9-0.7-1.6-1c-0.7-0.2-1.6-0.3-2.7-0.3
	c-1.1,0-2,0.1-2.7,0.3c-0.7,0.2-1.3,0.5-1.6,0.9c-0.4,0.4-0.5,0.9-0.5,1.5s0.2,1.1,0.5,1.5c0.4,0.4,0.9,0.7,1.6,0.9
	C52.4,77.7,53.3,77.8,54.4,77.8z M59.3,84.1c0.1-1.8,0.1-4.8,0.1-9c0-4.3,0-7.4-0.1-9.1h4.3v1.3c0,2.6,0,5.2-0.1,7.8
	c0,2.3,0,5,0.1,7.9v1.2H59.3z M66.8,84.1c0-3.9,0.1-6.8,0.1-8.8c0-2.3,0-5.4-0.1-9.3h4.5c0,0.3,0,0.5,0,0.8c0,0.2,0,0.5,0,0.7
	c0,1.2-0.1,2.3-0.1,3.5l-0.4-0.6c0.5-1,1-1.9,1.7-2.6c0.7-0.7,1.4-1.2,2.2-1.6c0.8-0.4,1.7-0.5,2.6-0.5c0.2,0,0.3,0,0.5,0
	c0.2,0,0.4,0.1,0.6,0.1v7.8c-0.5-0.1-0.9-0.2-1.4-0.3c-0.5-0.1-0.9-0.1-1.3-0.1c-0.9,0-1.7,0.1-2.4,0.4c-0.7,0.3-1.2,0.8-1.6,1.5
	c-0.4,0.7-0.6,1.6-0.6,2.8c0,1.1,0,2.2,0.1,3.4c0,0.7,0,1.6,0.1,2.9H66.8z M80.7,84.1c0-3.9,0.1-6.8,0.1-8.8c0-2.3,0-5.4-0.1-9.3
	h4.5c0,0.3,0,0.5,0,0.8c0,0.2,0,0.5,0,0.7c0,1.2-0.1,2.3-0.1,3.5l-0.4-0.6c0.5-1,1-1.9,1.7-2.6c0.7-0.7,1.4-1.2,2.2-1.6
	c0.8-0.4,1.7-0.5,2.6-0.5c0.2,0,0.3,0,0.5,0c0.2,0,0.4,0.1,0.6,0.1v7.8c-0.5-0.1-0.9-0.2-1.4-0.3s-0.9-0.1-1.3-0.1
	c-0.9,0-1.7,0.1-2.4,0.4c-0.7,0.3-1.2,0.8-1.6,1.5c-0.4,0.7-0.6,1.6-0.6,2.8c0,1.1,0,2.2,0.1,3.4c0,0.7,0,1.6,0.1,2.9H80.7z
	 M103,84.4c-3.2,0-5.5-0.8-7-2.4c-1.5-1.6-2.2-3.9-2.2-6.9c0-2.1,0.3-3.8,1-5.2c0.7-1.4,1.7-2.5,3.1-3.2c1.4-0.7,3.1-1.1,5.1-1.1
	c2.6,0,4.5,0.8,5.8,2.4c1.3,1.6,2,3.7,2,6.3v2.3h-14v-3.1h9.9c0-0.4-0.2-0.8-0.5-1.1c-0.3-0.4-0.8-0.6-1.4-0.9
	c-0.6-0.2-1.2-0.3-2-0.3c-1.1,0-2,0.2-2.8,0.5c-0.7,0.3-1.3,0.7-1.7,1.3c-0.4,0.6-0.5,1.3-0.5,2.1c0,0.9,0.2,1.6,0.5,2.1
	c0.4,0.5,1,0.9,1.8,1.1c0.8,0.2,2,0.3,3.4,0.3c1.1,0,2.2-0.1,3.2-0.2c1-0.1,2.2-0.3,3.6-0.6l-0.5,5.5c-1.1,0.4-2.3,0.6-3.4,0.8
	C105.3,84.3,104.2,84.4,103,84.4z M105.7,58.4l1.4,4.2l-8.4,1.3l-0.8-2.5L105.7,58.4z M119.2,84.6c-0.7,0-1.7-0.1-2.8-0.2
	c-1.1-0.2-2.2-0.4-3.3-0.7l-0.4-6.2c1.2,0.3,2.3,0.6,3.6,0.9c1.2,0.2,2.3,0.3,3.3,0.3c0.5,0,0.9,0,1.3-0.1c0.3-0.1,0.6-0.2,0.7-0.3
	c0.2-0.1,0.2-0.3,0.2-0.5c0-0.2,0-0.4-0.1-0.5c-0.1-0.1-0.2-0.2-0.5-0.3c-0.2-0.1-0.6-0.2-1-0.2c0,0-0.1,0-0.2,0
	c-1.8-0.2-3.3-0.5-4.4-0.9c-1.1-0.5-1.9-1-2.4-1.7c-0.5-0.7-0.7-1.6-0.7-2.7c0-0.8,0.2-1.6,0.6-2.4c0.4-0.8,1.2-1.6,2.4-2.2
	c1.2-0.7,2.9-1,5.2-1c1.2,0,2.3,0.1,3.2,0.2c0.9,0.1,1.9,0.4,2.9,0.6l0.1,6c-1.1-0.3-2.2-0.5-3.3-0.6c-1.1-0.2-2.1-0.2-3-0.2
	c-0.6,0-1.1,0.1-1.5,0.2c-0.4,0.1-0.6,0.4-0.6,0.7c0,0.2,0.1,0.4,0.2,0.5c0.1,0.1,0.3,0.2,0.6,0.3c0.3,0.1,0.7,0.1,1.3,0.2
	c1.8,0.2,3.2,0.5,4.2,0.9c1,0.4,1.8,0.9,2.3,1.5c0.5,0.7,0.7,1.5,0.7,2.6c0,2.2-0.8,3.8-2.4,4.7C123.8,84.1,121.7,84.6,119.2,84.6z"
	/>
<path class="st2" d="M315.6,350.5c-1.7,0-3.2-0.3-4.5-1c-1.2-0.7-2.2-1.7-2.9-3.1c-0.7-1.4-1.1-3.2-1.1-5.3c0-2.1,0.4-3.9,1.1-5.3
	c0.7-1.4,1.7-2.4,2.9-3.1c1.3-0.7,2.8-1,4.5-1c1.8,0,3.2,0.5,4.2,1.5c1.1,1,1.8,2.2,2.2,3.6c0.4,1.4,0.6,2.8,0.6,4.2
	c0,1.4-0.2,2.8-0.6,4.3c-0.4,1.4-1.2,2.7-2.2,3.7C318.8,350,317.4,350.5,315.6,350.5z M316.2,343.8c1.1,0,2-0.1,2.7-0.3
	c0.7-0.2,1.3-0.5,1.6-0.9c0.4-0.4,0.5-0.9,0.5-1.5s-0.2-1.1-0.5-1.5c-0.4-0.4-0.9-0.7-1.6-1c-0.7-0.2-1.6-0.3-2.7-0.3
	c-1.1,0-2,0.1-2.7,0.3c-0.7,0.2-1.3,0.5-1.6,0.9c-0.4,0.4-0.5,0.9-0.5,1.5s0.2,1.1,0.5,1.5c0.4,0.4,0.9,0.7,1.6,0.9
	C314.2,343.7,315.1,343.8,316.2,343.8z M321,350.2c0-0.9,0-1.5,0-2c0-3.3,0-6.6,0-9.9c0-3.1,0-6.1,0-9.2c0-0.6,0-1.5,0-2.8h4.3
	c0,2.4,0,4.6-0.1,6.6c0,1.9,0,3.7,0,5.3c0,1.9,0,3.9,0,6.1c0,2.2,0,4.1,0.1,5.8H321z M336.2,350.5c-1.7,0-3.2-0.3-4.4-1
	c-1.3-0.7-2.3-1.7-3-3.1c-0.7-1.4-1.1-3.1-1.1-5.1c0-2.2,0.4-4.1,1.1-5.5c0.7-1.5,1.7-2.5,3-3.2c1.3-0.7,2.9-1,4.7-1
	c1.7,0,3,0.5,4,1.5c1,1,1.7,2.2,2.1,3.7c0.4,1.4,0.6,2.8,0.6,4.1c0,1.4-0.2,2.8-0.6,4.3c-0.4,1.4-1.2,2.7-2.2,3.7
	C339.3,350,337.9,350.5,336.2,350.5z M336.7,343.8c1.1,0,2-0.1,2.7-0.3c0.7-0.2,1.3-0.5,1.6-0.9c0.4-0.4,0.5-0.9,0.5-1.5
	s-0.2-1.1-0.5-1.5c-0.4-0.4-0.9-0.7-1.6-1c-0.7-0.2-1.6-0.3-2.7-0.3c-1.1,0-2,0.1-2.7,0.3c-0.7,0.2-1.3,0.5-1.6,0.9
	c-0.4,0.4-0.5,0.9-0.5,1.5s0.2,1.1,0.5,1.5c0.4,0.4,0.9,0.7,1.6,0.9C334.7,343.7,335.6,343.8,336.7,343.8z M341.6,350.2
	c0.1-1.8,0.1-4.8,0.1-9c0-4.3,0-7.4-0.1-9.1h4.3v1.3c0,2.6,0,5.2-0.1,7.8c0,2.3,0,5,0.1,7.9v1.2H341.6z M349.1,350.2
	c0.1-1.6,0.1-4.6,0.1-9.1c0-1.9,0-3.7,0-5.5c0-1.2-0.1-2.4-0.1-3.5h4.5c0,0.8-0.1,1.4-0.1,1.8c-0.1,1.5-0.1,2.5-0.2,3.2l-0.3-0.7
	c0.4-0.9,0.9-1.7,1.5-2.4c0.6-0.7,1.3-1.3,2.2-1.7c0.9-0.4,1.9-0.6,3.1-0.6c1.5,0,2.7,0.3,3.6,1c0.9,0.7,1.6,1.5,1.9,2.6
	c0.4,1.1,0.6,2.2,0.5,3.5c-0.1,2.2-0.1,4.1-0.2,5.6c0,1.5,0,3.4,0.1,5.7h-4.4c0.1-1.2,0.1-3.4,0.1-6.6v-1c0-0.9-0.2-1.6-0.5-2.2
	s-0.8-0.9-1.3-1.2c-0.5-0.2-1.1-0.4-1.8-0.4c-1,0-1.8,0.2-2.5,0.5c-0.6,0.3-1.1,0.9-1.4,1.6c-0.3,0.7-0.5,1.6-0.5,2.7
	c0,2.2,0,4.4,0.1,6.5H349.1z M374.8,350.7c-0.7,0-1.7-0.1-2.8-0.2c-1.1-0.2-2.2-0.4-3.3-0.7l-0.4-6.2c1.2,0.3,2.3,0.6,3.6,0.9
	c1.2,0.2,2.3,0.3,3.3,0.3c0.5,0,0.9,0,1.3-0.1c0.3-0.1,0.6-0.2,0.7-0.3c0.2-0.1,0.2-0.3,0.2-0.5c0-0.2,0-0.4-0.1-0.5
	c-0.1-0.1-0.2-0.2-0.5-0.3c-0.2-0.1-0.6-0.2-1-0.2c0,0-0.1,0-0.2,0c-1.8-0.2-3.3-0.5-4.4-0.9c-1.1-0.5-1.9-1-2.4-1.7
	c-0.5-0.7-0.7-1.6-0.7-2.7c0-0.8,0.2-1.6,0.6-2.4c0.4-0.8,1.2-1.6,2.4-2.2c1.2-0.7,2.9-1,5.2-1c1.2,0,2.3,0.1,3.2,0.2
	c0.9,0.1,1.9,0.4,2.9,0.6l0.1,6c-1.1-0.3-2.2-0.5-3.3-0.6c-1.1-0.2-2.1-0.2-3-0.2c-0.6,0-1.1,0.1-1.5,0.2c-0.4,0.1-0.6,0.4-0.6,0.7
	c0,0.2,0.1,0.4,0.2,0.5c0.1,0.1,0.3,0.2,0.6,0.3c0.3,0.1,0.7,0.1,1.3,0.2c1.8,0.2,3.2,0.5,4.2,0.9c1,0.4,1.8,0.9,2.3,1.5
	c0.5,0.7,0.7,1.5,0.7,2.6c0,2.2-0.8,3.8-2.4,4.7C379.4,350.2,377.4,350.7,374.8,350.7z M237,382.5c-1.7,0-3.2-0.3-4.5-1
	c-1.2-0.7-2.2-1.7-2.9-3.1c-0.7-1.4-1.1-3.2-1.1-5.3c0-2.1,0.4-3.9,1.1-5.3c0.7-1.4,1.7-2.4,2.9-3.1c1.3-0.7,2.8-1,4.5-1
	c1.8,0,3.2,0.5,4.2,1.5c1.1,1,1.8,2.2,2.2,3.6c0.4,1.4,0.6,2.8,0.6,4.2c0,1.4-0.2,2.8-0.6,4.3c-0.4,1.4-1.2,2.7-2.2,3.7
	C240.2,382,238.8,382.5,237,382.5z M237.6,375.8c1.1,0,2-0.1,2.7-0.3c0.7-0.2,1.3-0.5,1.6-0.9c0.4-0.4,0.5-0.9,0.5-1.5
	s-0.2-1.1-0.5-1.5c-0.4-0.4-0.9-0.7-1.6-1c-0.7-0.2-1.6-0.3-2.7-0.3c-1.1,0-2,0.1-2.7,0.3c-0.7,0.2-1.3,0.5-1.6,0.9
	c-0.4,0.4-0.5,0.9-0.5,1.5s0.2,1.1,0.5,1.5c0.4,0.4,0.9,0.7,1.6,0.9C235.6,375.7,236.5,375.8,237.6,375.8z M242.4,382.2
	c0-0.9,0-1.5,0-2c0-3.3,0-6.6,0-9.9c0-3.1,0-6.1,0-9.2c0-0.6,0-1.5,0-2.8h4.3c0,2.4,0,4.6-0.1,6.6c0,1.9,0,3.7,0,5.3
	c0,1.9,0,3.9,0,6.1c0,2.2,0,4.1,0.1,5.8H242.4z M258.3,382.5c-3.2,0-5.5-0.8-7-2.4c-1.5-1.6-2.2-3.9-2.2-6.9c0-2.1,0.3-3.8,1-5.2
	c0.7-1.4,1.7-2.5,3.1-3.2c1.4-0.7,3.1-1.1,5.1-1.1c2.6,0,4.5,0.8,5.8,2.4c1.3,1.6,2,3.7,2,6.3v2.3h-14v-3.1h9.9
	c0-0.4-0.2-0.8-0.5-1.1c-0.3-0.4-0.8-0.6-1.4-0.9c-0.6-0.2-1.2-0.3-2-0.3c-1.1,0-2,0.2-2.8,0.5c-0.7,0.3-1.3,0.7-1.7,1.3
	c-0.4,0.6-0.5,1.3-0.5,2.1c0,0.9,0.2,1.6,0.5,2.1c0.4,0.5,1,0.9,1.8,1.1c0.8,0.2,2,0.3,3.4,0.3c1.1,0,2.2-0.1,3.2-0.2
	c1-0.1,2.2-0.3,3.6-0.6l-0.5,5.5c-1.1,0.4-2.3,0.6-3.4,0.8C260.6,382.4,259.5,382.5,258.3,382.5z M274.5,382.7
	c-0.7,0-1.7-0.1-2.8-0.2c-1.1-0.2-2.2-0.4-3.3-0.7l-0.4-6.2c1.2,0.3,2.3,0.6,3.6,0.9c1.2,0.2,2.3,0.3,3.3,0.3c0.5,0,0.9,0,1.3-0.1
	c0.3-0.1,0.6-0.2,0.7-0.3c0.2-0.1,0.2-0.3,0.2-0.5c0-0.2,0-0.4-0.1-0.5c-0.1-0.1-0.2-0.2-0.5-0.3c-0.2-0.1-0.6-0.2-1-0.2
	c0,0-0.1,0-0.2,0c-1.8-0.2-3.3-0.5-4.4-0.9c-1.1-0.5-1.9-1-2.4-1.7c-0.5-0.7-0.7-1.6-0.7-2.7c0-0.8,0.2-1.6,0.6-2.4
	c0.4-0.8,1.2-1.6,2.4-2.2c1.2-0.7,2.9-1,5.2-1c1.2,0,2.3,0.1,3.2,0.2c0.9,0.1,1.9,0.4,2.9,0.6l0.1,6c-1.1-0.3-2.2-0.5-3.3-0.6
	c-1.1-0.2-2.1-0.2-3-0.2c-0.6,0-1.1,0.1-1.5,0.2c-0.4,0.1-0.6,0.4-0.6,0.7c0,0.2,0.1,0.4,0.2,0.5c0.1,0.1,0.3,0.2,0.6,0.3
	c0.3,0.1,0.7,0.1,1.3,0.2c1.8,0.2,3.2,0.5,4.2,0.9c1,0.4,1.8,0.9,2.3,1.5c0.5,0.7,0.7,1.5,0.7,2.6c0,2.2-0.8,3.8-2.4,4.7
	C279.1,382.2,277,382.7,274.5,382.7z M295.2,382.2c0-3.9,0.1-6.8,0.1-8.8c0-2.3,0-5.4-0.1-9.3h4.5c0,0.3,0,0.5,0,0.8
	c0,0.2,0,0.5,0,0.7c0,1.2-0.1,2.3-0.1,3.5l-0.4-0.6c0.5-1,1-1.9,1.7-2.6c0.7-0.7,1.4-1.2,2.2-1.6c0.8-0.4,1.7-0.5,2.6-0.5
	c0.2,0,0.3,0,0.5,0c0.2,0,0.4,0.1,0.6,0.1v7.8c-0.5-0.1-0.9-0.2-1.4-0.3c-0.5-0.1-0.9-0.1-1.3-0.1c-0.9,0-1.7,0.1-2.4,0.4
	c-0.7,0.3-1.2,0.8-1.6,1.5c-0.4,0.7-0.6,1.6-0.6,2.8c0,1.1,0,2.2,0.1,3.4c0,0.7,0,1.6,0.1,2.9H295.2z M317.2,382.5
	c-3.1,0-5.3-0.8-6.7-2.4c-1.4-1.6-2.1-4-2.1-7c0-3.1,0.7-5.4,2.1-7c1.4-1.6,3.6-2.4,6.7-2.4c3,0,5.3,0.8,6.7,2.4
	c1.4,1.6,2.1,4,2.1,7c0,3.1-0.7,5.4-2.1,7C322.5,381.7,320.3,382.5,317.2,382.5z M317.2,375.8c1,0,1.9-0.1,2.6-0.3
	c0.7-0.2,1.2-0.5,1.6-0.9c0.4-0.4,0.5-0.9,0.5-1.6c0-0.6-0.2-1.2-0.6-1.6c-0.4-0.4-0.9-0.7-1.6-1c-0.7-0.2-1.6-0.3-2.5-0.3
	c-1,0-1.9,0.1-2.6,0.3c-0.7,0.2-1.2,0.5-1.6,1c-0.3,0.4-0.5,0.9-0.5,1.6c0,0.6,0.2,1.2,0.5,1.6c0.4,0.4,0.9,0.7,1.6,0.9
	C315.3,375.8,316.2,375.8,317.2,375.8z M328.5,382.2c0.1-1.6,0.1-4.6,0.1-9.1c0-1.9,0-3.7,0-5.5c0-1.2-0.1-2.4-0.1-3.5h4.5
	c0,0.8-0.1,1.4-0.1,1.8c-0.1,1.5-0.1,2.5-0.2,3.2l-0.3-0.7c0.4-0.9,0.9-1.7,1.5-2.4c0.6-0.7,1.3-1.3,2.2-1.7
	c0.9-0.4,1.9-0.6,3.1-0.6c1.5,0,2.7,0.3,3.6,1c0.9,0.7,1.6,1.5,1.9,2.6c0.4,1.1,0.6,2.2,0.5,3.5c-0.1,2.2-0.1,4.1-0.2,5.6
	c0,1.5,0,3.4,0.1,5.7h-4.4c0.1-1.2,0.1-3.4,0.1-6.6v-1c0-0.9-0.2-1.6-0.5-2.2s-0.8-0.9-1.3-1.2c-0.5-0.2-1.1-0.4-1.8-0.4
	c-1,0-1.8,0.2-2.5,0.5c-0.6,0.3-1.1,0.9-1.4,1.6c-0.3,0.7-0.5,1.6-0.5,2.7c0,2.2,0,4.4,0.1,6.5H328.5z M355.8,382.5
	c-1.7,0-3.2-0.3-4.5-1c-1.2-0.7-2.2-1.7-2.9-3.1c-0.7-1.4-1.1-3.2-1.1-5.3c0-2.1,0.4-3.9,1.1-5.3c0.7-1.4,1.7-2.4,2.9-3.1
	c1.3-0.7,2.8-1,4.5-1c1.8,0,3.2,0.5,4.2,1.5c1.1,1,1.8,2.2,2.2,3.6c0.4,1.4,0.6,2.8,0.6,4.2c0,1.4-0.2,2.8-0.6,4.3
	c-0.4,1.4-1.2,2.7-2.2,3.7C359,382,357.6,382.5,355.8,382.5z M356.4,375.8c1.1,0,2-0.1,2.7-0.3c0.7-0.2,1.3-0.5,1.6-0.9
	c0.4-0.4,0.5-0.9,0.5-1.5s-0.2-1.1-0.5-1.5c-0.4-0.4-0.9-0.7-1.6-1c-0.7-0.2-1.6-0.3-2.7-0.3c-1.1,0-2,0.1-2.7,0.3
	c-0.7,0.2-1.3,0.5-1.6,0.9c-0.4,0.4-0.5,0.9-0.5,1.5s0.2,1.1,0.5,1.5c0.4,0.4,0.9,0.7,1.6,0.9C354.4,375.7,355.3,375.8,356.4,375.8z
	 M361.3,382.2c0-0.9,0-1.5,0-2c0-3.3,0-6.6,0-9.9c0-3.1,0-6.1,0-9.2c0-0.6,0-1.5,0-2.8h4.3c0,2.4,0,4.6-0.1,6.6c0,1.9,0,3.7,0,5.3
	c0,1.9,0,3.9,0,6.1c0,2.2,0,4.1,0.1,5.8H361.3z M374.8,382.7c-0.7,0-1.7-0.1-2.8-0.2c-1.1-0.2-2.2-0.4-3.3-0.7l-0.4-6.2
	c1.2,0.3,2.3,0.6,3.6,0.9c1.2,0.2,2.3,0.3,3.3,0.3c0.5,0,0.9,0,1.3-0.1c0.3-0.1,0.6-0.2,0.7-0.3c0.2-0.1,0.2-0.3,0.2-0.5
	c0-0.2,0-0.4-0.1-0.5c-0.1-0.1-0.2-0.2-0.5-0.3c-0.2-0.1-0.6-0.2-1-0.2c0,0-0.1,0-0.2,0c-1.8-0.2-3.3-0.5-4.4-0.9
	c-1.1-0.5-1.9-1-2.4-1.7c-0.5-0.7-0.7-1.6-0.7-2.7c0-0.8,0.2-1.6,0.6-2.4c0.4-0.8,1.2-1.6,2.4-2.2c1.2-0.7,2.9-1,5.2-1
	c1.2,0,2.3,0.1,3.2,0.2c0.9,0.1,1.9,0.4,2.9,0.6l0.1,6c-1.1-0.3-2.2-0.5-3.3-0.6c-1.1-0.2-2.1-0.2-3-0.2c-0.6,0-1.1,0.1-1.5,0.2
	c-0.4,0.1-0.6,0.4-0.6,0.7c0,0.2,0.1,0.4,0.2,0.5c0.1,0.1,0.3,0.2,0.6,0.3c0.3,0.1,0.7,0.1,1.3,0.2c1.8,0.2,3.2,0.5,4.2,0.9
	c1,0.4,1.8,0.9,2.3,1.5c0.5,0.7,0.7,1.5,0.7,2.6c0,2.2-0.8,3.8-2.4,4.7C379.4,382.2,377.4,382.7,374.8,382.7z"/>
</svg>
