<svg width="140" height="43" viewBox="0 0 140 43" fill="none" xmlns="http://www.w3.org/2000/svg">
<g clip-path="url(#clip0_104_267)">
<g clip-path="url(#clip1_104_267)">
<path d="M55.3418 6.66528C48.2868 6.66528 42.5682 12.3525 42.5682 19.3687V29.1737C42.5682 36.19 48.2868 41.8772 55.3418 41.8772C62.3968 41.8772 68.1155 36.19 68.1155 29.1737V19.3687C68.1155 12.3525 62.3968 6.66528 55.3418 6.66528ZM55.3418 34.6948C52.335 34.6948 49.9004 32.2701 49.9004 29.2833V19.2662C49.9004 16.2759 52.3386 13.8547 55.3418 13.8547C58.3486 13.8547 60.7832 16.2794 60.7832 19.2662V29.2833C60.7832 32.2736 58.3451 34.6948 55.3418 34.6948Z" fill="#181819"/>
<path d="M91.8288 7.54187V22.0338C91.8288 22.7549 91.2957 23.3982 90.5742 23.4653C89.9522 23.5219 89.4084 23.1684 89.1809 22.6453L89.1738 22.6312L82.6555 7.35453C82.5809 7.1778 82.4067 7.06116 82.2112 7.06116H73.9514C73.6848 7.06116 73.468 7.27677 73.468 7.54187V40.9935C73.468 41.2586 73.6848 41.4742 73.9514 41.4742H80.1747C80.4413 41.4742 80.6581 41.2586 80.6581 40.9935V26.5016C80.6581 25.7805 81.1912 25.1372 81.9127 25.07C82.5347 25.0135 83.0785 25.367 83.3059 25.8901L83.313 25.9042L89.8278 41.1773C89.9024 41.354 90.0766 41.4707 90.2721 41.4707H98.5319C98.7985 41.4707 99.0153 41.2551 99.0153 40.99V7.54187C99.0153 7.27677 98.7985 7.06116 98.5319 7.06116H92.3086C92.042 7.06116 91.8252 7.27677 91.8252 7.54187H91.8288Z" fill="#181819"/>
<path d="M28.4688 7.06469C28.2769 7.06469 28.0992 7.18133 28.0245 7.35807L19.8748 26.4733C19.6616 26.9575 19.1747 27.2969 18.6096 27.2969C18.0445 27.2969 17.5362 26.9434 17.3301 26.4415L9.18394 7.35453C9.10931 7.1778 8.93515 7.06116 8.73967 7.06116H0.483365C0.216804 7.06116 0 7.27677 0 7.54187V40.9935C0 41.2586 0.216804 41.4742 0.483365 41.4742H6.7067C6.97326 41.4742 7.19006 41.2586 7.19006 40.9935V26.5016C7.19006 25.7805 7.72318 25.1372 8.44468 25.07C9.06666 25.0135 9.61044 25.367 9.83791 25.8901L9.84502 25.9042L16.3598 41.1773C16.4344 41.354 16.6086 41.4707 16.8041 41.4707H20.4009C20.5928 41.4707 20.7705 41.354 20.8451 41.1773L27.3599 25.9042L27.367 25.8901C27.598 25.3705 28.1418 25.017 28.7602 25.07C29.4817 25.1337 30.0149 25.777 30.0149 26.5016V40.9935C30.0149 41.2586 30.2317 41.4742 30.4982 41.4742H36.7216C36.9881 41.4742 37.2049 41.2586 37.2049 40.9935V7.54187C37.2049 7.27677 36.9881 7.06116 36.7216 7.06116H28.4617L28.4688 7.06469Z" fill="#181819"/>
<path d="M117.159 6.66528C110.104 6.66528 104.386 12.3525 104.386 19.3687V29.1737C104.386 36.19 110.104 41.8772 117.159 41.8772C124.214 41.8772 129.933 36.19 129.933 29.1737V19.3687C129.933 12.3525 124.214 6.66528 117.159 6.66528ZM117.159 34.6948C114.152 34.6948 111.718 32.2701 111.718 29.2833V19.2662C111.718 16.2759 114.156 13.8547 117.159 13.8547C120.166 13.8547 122.601 16.2794 122.601 19.2662V29.2833C122.601 32.2736 120.163 34.6948 117.159 34.6948Z" fill="#181819"/>
</g>
<path d="M138.849 1.24553C138.071 0.420788 136.937 0 135.481 0C134.026 0 132.892 0.420788 132.113 1.24553C131.352 2.07028 130.962 3.26532 130.962 4.81382C130.962 6.36232 131.352 7.60785 132.113 8.41576C132.875 9.24051 134.009 9.66129 135.481 9.66129C136.954 9.66129 138.088 9.24051 138.849 8.41576C139.611 7.59102 140 6.37915 140 4.81382C140 3.24848 139.611 2.07028 138.849 1.24553ZM138.358 7.94448C137.715 8.63457 136.784 8.9712 135.498 8.9712C134.212 8.9712 133.264 8.61774 132.638 7.94448C131.995 7.25439 131.673 6.194 131.673 4.79698C131.673 3.39997 131.995 2.39008 132.638 1.69998C133.281 1.02672 134.246 0.673261 135.498 0.673261C136.75 0.673261 137.732 1.00989 138.358 1.69998C139.001 2.39008 139.323 3.43363 139.323 4.79698C139.323 6.16034 139.001 7.25439 138.358 7.94448Z" fill="#181819"/>
<path d="M137.461 6.05934C137.461 5.97519 137.461 5.8742 137.461 5.79004C137.461 5.68905 137.461 5.60489 137.461 5.5039C137.461 5.36925 137.461 5.25143 137.461 5.13361C137.461 5.01579 137.461 4.89797 137.461 4.79698C137.461 4.67916 137.461 4.56134 137.461 4.44352C137.461 4.24154 137.427 4.07323 137.36 3.90491C137.292 3.73659 137.191 3.60194 137.038 3.50095C136.886 3.38313 136.683 3.29898 136.429 3.23165C136.175 3.16432 135.87 3.14749 135.481 3.14749C135.21 3.14749 134.973 3.16432 134.77 3.19799C134.567 3.23165 134.381 3.28214 134.229 3.34947C134.076 3.4168 133.941 3.50095 133.856 3.60194C133.755 3.70293 133.687 3.83758 133.636 3.97224C133.586 4.10689 133.569 4.2752 133.569 4.44352C133.603 4.44352 133.653 4.44352 133.687 4.44352C133.738 4.44352 133.789 4.44352 133.839 4.44352H134.195C134.195 4.44352 134.33 4.44352 134.381 4.44352C134.381 4.3257 134.381 4.24154 134.432 4.14055C134.466 4.05639 134.533 3.98907 134.601 3.92174C134.686 3.87125 134.804 3.82075 134.94 3.78709C135.075 3.75343 135.261 3.73659 135.481 3.73659C135.701 3.73659 135.887 3.73659 136.023 3.78709C136.158 3.82075 136.26 3.85442 136.344 3.92174C136.429 3.98907 136.48 4.05639 136.514 4.14055C136.547 4.22471 136.564 4.3257 136.564 4.44352C136.564 4.51084 136.564 4.57817 136.564 4.66233C136.564 4.67916 136.564 4.69599 136.564 4.72965C136.412 4.69599 136.243 4.67916 136.04 4.66233C135.786 4.66233 135.515 4.6455 135.193 4.6455C134.787 4.6455 134.466 4.67916 134.212 4.74649C133.958 4.81381 133.755 4.9148 133.636 5.04945C133.518 5.18411 133.45 5.36925 133.45 5.58806C133.45 5.75638 133.484 5.89103 133.535 6.00885C133.586 6.12667 133.687 6.22766 133.823 6.29499C133.941 6.36231 134.11 6.42964 134.279 6.4633C134.449 6.49696 134.686 6.5138 134.923 6.5138C135.261 6.5138 135.549 6.48013 135.786 6.39598C136.023 6.32865 136.226 6.21083 136.361 6.05934C136.446 5.97519 136.497 5.8742 136.547 5.77321H136.581C136.581 5.77321 136.581 5.92469 136.581 5.99202V6.194C136.581 6.194 136.581 6.27815 136.581 6.31182C136.581 6.34548 136.581 6.36231 136.615 6.37914C136.649 6.39598 136.649 6.39598 136.683 6.41281C136.717 6.41281 136.75 6.41281 136.784 6.41281H137.529C137.529 6.41281 137.495 6.31182 137.495 6.24449C137.495 6.17717 137.478 6.09301 137.478 6.00885L137.461 6.05934ZM136.226 5.72271C136.107 5.79004 135.972 5.84054 135.803 5.89103C135.633 5.92469 135.447 5.95836 135.227 5.95836C135.058 5.95836 134.906 5.95836 134.787 5.92469C134.669 5.89103 134.567 5.8742 134.5 5.84054C134.415 5.80687 134.364 5.75638 134.33 5.68905C134.296 5.63856 134.279 5.57123 134.279 5.48707C134.279 5.40292 134.296 5.35242 134.347 5.28509C134.381 5.2346 134.449 5.18411 134.533 5.13361C134.618 5.08312 134.72 5.06629 134.855 5.04945C134.973 5.03262 135.143 5.01579 135.312 5.01579C135.549 5.01579 135.786 5.01579 136.006 5.01579C136.209 5.01579 136.378 5.04945 136.564 5.06629C136.564 5.08312 136.564 5.09995 136.564 5.13361C136.564 5.25143 136.53 5.35242 136.48 5.45341C136.429 5.5544 136.344 5.62173 136.226 5.68905V5.72271Z" fill="#181819"/>
</g>
<defs>
<clipPath id="clip0_104_267">
<rect width="140" height="42.4828" fill="white"/>
</clipPath>
<clipPath id="clip1_104_267">
<rect width="129.933" height="35.2119" fill="white" transform="translate(0 6.66528)"/>
</clipPath>
</defs>
</svg>
